<!-- Generator: Adobe Illustrator 24.1.0, SVG Export Plug-In  -->
<svg version="1.1" xmlns="http://www.w3.org/2000/svg" xmlns:xlink="http://www.w3.org/1999/xlink" x="0px" y="0px" width="30px"
	 height="30px" viewBox="0 0 30 30" style="enable-background:new 0 0 30 30;" xml:space="preserve">
<style type="text/css">
	.svg{fill:#447377;}
</style>
<defs>
</defs>
<path class="svg" d="M21.4,0H8.6C6.3,0,4.1,0.9,2.5,2.5S0,6.3,0,8.6v12.8c0,2.3,0.9,4.5,2.5,6.1C4.1,29.1,6.3,30,8.6,30h12.8
	c2.3,0,4.5-0.9,6.1-2.5c1.6-1.6,2.5-3.8,2.5-6.1V8.6c0-2.3-0.9-4.5-2.5-6.1C25.9,0.9,23.7,0,21.4,0L21.4,0z M27.4,21
	c0,0.8-0.2,1.7-0.5,2.4c-0.3,0.8-0.8,1.5-1.4,2c-0.6,0.6-1.3,1.1-2,1.4c-0.8,0.3-1.6,0.5-2.4,0.5h-12c-0.8,0-1.7-0.2-2.4-0.5
	c-0.8-0.3-1.5-0.8-2-1.4s-1.1-1.3-1.4-2S2.8,21.8,2.8,21V9c0-0.8,0.2-1.7,0.5-2.4s0.8-1.5,1.4-2s1.3-1.1,2-1.4s1.6-0.5,2.4-0.5h12
	c0.8,0,1.7,0.2,2.4,0.5c0.8,0.3,1.5,0.8,2,1.4c0.6,0.6,1.1,1.3,1.4,2c0.3,0.8,0.5,1.6,0.5,2.4V21z"/>
<path class="svg" d="M13.5,15c0.5,0,1.6-0.6,1.6-2.1c0-1.5-1-2.8-2.9-2.8c-1.9,0-5.8,0-5.8,0V21c0,0,4.3,0,5.8,0
	c1.5,0,3.3-1,3.3-3.3S14,15,13.5,15z M8.8,12c0,0,2.2,0,3.1,0s0.8,1.2,0.8,1.2c0,0.8-0.4,1.2-0.8,1.2s-3.1,0-3.1,0V12z M12,19
	c-0.5,0-3.1,0-3.1,0v-2.9c0,0,2.6,0,3.1,0c0.6,0,1.2,0.3,1.2,1.4C13.1,18.7,12.5,19,12,19z"/>
<path class="svg" d="M23.9,17.6c0,0,0.6-4.7-3.9-4.7c-4.4,0-4.1,4.6-4.1,4.7c0,0.2,0.2,3.6,4.1,3.6s3.7-2.6,3.7-2.9
	c-0.7,0-1.9,0-1.9,0s0.1,1.2-1.8,1.2s-1.8-1.9-1.8-1.9H23.9z M20.1,14.4c1.7,0,1.7,1.7,1.7,1.7h-3.6C18.2,16.1,18.3,14.4,20.1,14.4z
	"/>
<rect x="17.8" y="10.7" class="svg" width="4.5" height="1.3"/>
</svg>
